<svg width="465" height="430" viewBox="0 0 465 430" fill="none" xmlns="http://www.w3.org/2000/svg">
<path d="M-1.1217 0.209473C38.0272 27.675 77.3516 54.972 127.912 63.5655C178.472 71.9905 240.443 61.5435 267.478 89.8515C294.514 117.991 286.789 184.717 315.229 223.978C343.845 263.238 408.625 275.033 439.172 307.216C469.543 339.4 465.681 391.972 461.818 444.544H-1.1217V0.209473Z" fill="#96446E"/>
<path d="M-1.1217 148.321C25.0361 166.687 51.1938 184.885 84.9005 190.614C118.607 196.175 159.863 189.266 177.945 207.97C196.027 226.842 190.761 271.326 209.721 297.443C228.856 323.729 272.043 331.48 292.407 353.048C312.596 374.448 310.138 409.496 307.505 444.544H-1.1217V148.321Z" fill="#F17C53"/>
<path d="M-1.1217 296.432C11.8694 305.531 25.0361 314.63 41.8894 317.495C58.7427 320.359 79.4583 316.821 88.4116 326.257C97.365 335.693 94.9072 357.935 104.387 371.078C113.867 384.052 135.461 388.096 145.643 398.712C155.825 409.496 154.421 427.02 153.192 444.544H-1.1217V296.432Z" fill="#FBAE3C"/>
</svg>
