<svg width="463" height="449" viewBox="0 0 463 449" fill="none" xmlns="http://www.w3.org/2000/svg">
<path d="M463 444.335C407.525 449.558 351.873 454.95 319.922 422.598C287.971 390.077 279.545 319.981 243.907 289.314C208.445 258.647 145.596 267.578 109.431 246.684C73.0912 225.621 63.6112 174.903 49.7423 128.902C36.049 82.7335 18.1423 41.451 0.0600586 0H463V444.335Z" fill="#96446E"/>
<path d="M463 296.223C425.958 299.762 388.916 303.3 367.673 281.732C346.256 259.995 340.813 213.321 316.938 192.932C293.238 172.544 251.456 178.441 227.229 164.456C203.178 150.47 196.682 116.602 187.553 85.935C178.249 55.268 166.311 27.634 154.373 0H463V296.223Z" fill="#F17C53"/>
<path d="M463 148.112C444.567 149.797 425.958 151.65 415.249 140.866C404.716 130.082 401.907 106.661 389.969 96.382C378.207 86.272 357.14 89.1365 345.202 82.228C333.089 75.151 329.929 58.301 325.189 42.9675C320.624 27.634 314.656 13.817 308.687 0H463V148.112Z" fill="#FBAE3C"/>
</svg>
